<svg xmlns="http://www.w3.org/2000/svg" width="10.852" height="9.257" viewBox="0 0 10.852 9.257">
  <g id="bx-user" transform="translate(-4.5 -3)">
    <path id="Path_90" data-name="Path 90" d="M16.423,7.462A1.462,1.462,0,1,1,14.962,6,1.462,1.462,0,0,1,16.423,7.462Z" transform="translate(-6.077 -2.026)" fill="none"/>
    <path id="Path_91" data-name="Path 91" d="M8.885,3a2.436,2.436,0,1,0,2.436,2.436A2.439,2.439,0,0,0,8.885,3Zm0,3.9a1.462,1.462,0,1,1,1.462-1.462,1.621,1.621,0,0,1-.341.937A1.353,1.353,0,0,1,8.885,6.9Zm4.385,5.359v-.487a3.415,3.415,0,0,0-3.41-3.41H7.91a3.414,3.414,0,0,0-3.41,3.41v.487h.974v-.487A2.439,2.439,0,0,1,7.91,9.333H9.859A2.439,2.439,0,0,1,12.3,11.769v.487Z" transform="translate(0 0)" fill="#0060ae"/>
    <path id="Path_98" data-name="Path 98" d="M24.98,13.807,24.1,12.93l-.477.477,1.355,1.355,2.371-2.371-.477-.477Z" transform="translate(-11.998 -6.478)" fill="#0060ae"/>
  </g>
</svg>
