<svg xmlns="http://www.w3.org/2000/svg" width="10.111" height="10.111" viewBox="0 0 10.111 10.111">
  <g id="finance" transform="translate(-2.25 -2.251)">
    <path id="Path_104" data-name="Path 104" d="M2.25,31.5H12.361v.722H2.25Z" transform="translate(0 -19.861)" fill="#0060ae"/>
    <path id="Path_105" data-name="Path 105" d="M12.805,5.5a.361.361,0,0,0,.361-.361V4.056a.361.361,0,0,0-.238-.339L8.956,2.272a.361.361,0,0,0-.246,0L4.738,3.717a.361.361,0,0,0-.238.339V5.139a.361.361,0,0,0,.361.361h.361v4.694H4.5v.722h8.666v-.722h-.722V5.5ZM5.222,4.309,8.833,2.994l3.611,1.314v.47H5.222Zm4.333,5.886H8.111V5.5H9.555ZM5.944,5.5H7.389v4.694H5.944Zm5.778,4.694H10.278V5.5h1.444Z" transform="translate(-1.528)" fill="#0060ae"/>
  </g>
</svg>
