<svg xmlns="http://www.w3.org/2000/svg" width="10.247" height="10.246" viewBox="0 0 10.247 10.246">
  <g id="telephone" transform="translate(-1.124 -1.128)">
    <path id="Path_92" data-name="Path 92" d="M3.464,1.977a.434.434,0,0,0-.65-.04L2.151,2.6a1.1,1.1,0,0,0-.288,1.132A11.25,11.25,0,0,0,4.533,7.965a11.251,11.251,0,0,0,4.232,2.669A1.1,1.1,0,0,0,9.9,10.346l.663-.663a.434.434,0,0,0-.041-.65L9.043,7.885a.434.434,0,0,0-.372-.079l-1.4.35a1.118,1.118,0,0,1-1.062-.294L4.635,6.289a1.118,1.118,0,0,1-.294-1.062l.35-1.4a.434.434,0,0,0-.079-.372ZM2.331,1.455A1.118,1.118,0,0,1,4,1.559L5.152,3.036a1.115,1.115,0,0,1,.2.956L5,5.394a.434.434,0,0,0,.114.413L6.692,7.38a.434.434,0,0,0,.413.114l1.4-.35a1.118,1.118,0,0,1,.957.2l1.477,1.148a1.117,1.117,0,0,1,.1,1.672l-.663.663a1.78,1.78,0,0,1-1.842.45A11.933,11.933,0,0,1,4.05,8.448,11.933,11.933,0,0,1,1.219,3.959a1.78,1.78,0,0,1,.45-1.843l.663-.662Z" transform="translate(0 0)" fill="#0060ae" fill-rule="evenodd"/>
  </g>
</svg>
